<mxfile host="app.diagrams.net" modified="2021-07-16T06:56:59.237Z" agent="5.0 (Windows NT 10.0; Win64; x64) AppleWebKit/537.36 (KHTML, like Gecko) Chrome/91.0.4472.124 Safari/537.36" etag="cek505IWfEhjloEicRdo" version="14.8.6" type="github">
  <diagram id="6a731a19-8d31-9384-78a2-239565b7b9f0" name="Page-1">
    <mxGraphModel dx="1323" dy="-204" grid="1" gridSize="10" guides="1" tooltips="1" connect="1" arrows="1" fold="1" page="1" pageScale="1" pageWidth="1169" pageHeight="827" background="#ffffff" math="0" shadow="0">
      <root>
        <mxCell id="0" />
        <mxCell id="1" parent="0" />
        <mxCell id="56" value="&lt;b&gt;&lt;font style=&quot;font-size: 27px&quot;&gt;再平衡&lt;/font&gt;&lt;/b&gt;" style="strokeColor=#BAC8D3;fontSize=24;strokeWidth=2;fontFamily=Helvetica;html=1;fontColor=#FFFFFF;fontStyle=0;spacingBottom=8;spacingRight=0;spacingLeft=83;fillColor=#23445D;" parent="1" vertex="1">
          <mxGeometry x="154" y="850.5" width="1406" height="80" as="geometry" />
        </mxCell>
        <mxCell id="57" value="Step 1" style="strokeColor=#BAC8D3;fillColor=#23445D;fontSize=24;strokeWidth=2;horizontal=0;fontFamily=Helvetica;html=1;fontColor=#FFFFFF;fontStyle=0" parent="1" vertex="1">
          <mxGeometry x="154" y="930.5" width="50" height="300" as="geometry" />
        </mxCell>
        <mxCell id="58" value="Step 1.1" style="strokeColor=#BAC8D3;fillColor=#5d7f99;fontSize=19;strokeWidth=2;horizontal=0;fontFamily=Helvetica;html=1;labelBackgroundColor=none;fontColor=#FFFFFF;" parent="1" vertex="1">
          <mxGeometry x="204" y="930.5" width="40" height="169.5" as="geometry" />
        </mxCell>
        <mxCell id="59" value="v 1.0" style="strokeColor=#BAC8D3;fillColor=#5d7f99;fontSize=19;strokeWidth=2;fontFamily=Helvetica;html=1;labelBackgroundColor=none;fontColor=#FFFFFF;" parent="1" vertex="1">
          <mxGeometry x="154" y="850.5" width="90" height="99.5" as="geometry" />
        </mxCell>
        <mxCell id="61" value="Step 1.2" style="strokeColor=#BAC8D3;fillColor=#5d7f99;fontSize=19;strokeWidth=2;horizontal=0;fontFamily=Helvetica;html=1;labelBackgroundColor=none;fontColor=#FFFFFF;" parent="1" vertex="1">
          <mxGeometry x="204" y="1100" width="40" height="130.5" as="geometry" />
        </mxCell>
        <mxCell id="63" value="Step 2.1" style="strokeColor=#BAC8D3;fillColor=#5d7f99;fontSize=19;strokeWidth=2;horizontal=0;fontFamily=Helvetica;html=1;labelBackgroundColor=none;fontColor=#FFFFFF;" parent="1" vertex="1">
          <mxGeometry x="204" y="1230.5" width="40" height="209.5" as="geometry" />
        </mxCell>
        <mxCell id="64" value="Step 2" style="strokeColor=#BAC8D3;fillColor=#23445D;fontSize=24;strokeWidth=2;horizontal=0;fontFamily=Helvetica;html=1;fontColor=#FFFFFF;fontStyle=0" parent="1" vertex="1">
          <mxGeometry x="154" y="1230.5" width="50" height="209.5" as="geometry" />
        </mxCell>
        <mxCell id="66" value="Step 3.1" style="strokeColor=#BAC8D3;fillColor=#5d7f99;fontSize=19;strokeWidth=2;horizontal=0;fontFamily=Helvetica;html=1;labelBackgroundColor=none;fontColor=#FFFFFF;" parent="1" vertex="1">
          <mxGeometry x="204" y="1440" width="40" height="190" as="geometry" />
        </mxCell>
        <mxCell id="67" value="Step 3" style="strokeColor=#BAC8D3;fillColor=#23445D;fontSize=24;strokeWidth=2;horizontal=0;fontFamily=Helvetica;html=1;fontColor=#FFFFFF;fontStyle=0" parent="1" vertex="1">
          <mxGeometry x="154" y="1440" width="50" height="190.5" as="geometry" />
        </mxCell>
        <mxCell id="68" value="" style="strokeColor=#FFFFFF;fillColor=#BAC8D3;fontSize=18;strokeWidth=2;fontFamily=Helvetica;html=1;opacity=60;" parent="1" vertex="1">
          <mxGeometry x="244" y="930.5" width="646.67" height="169.5" as="geometry" />
        </mxCell>
        <mxCell id="70" value="" style="strokeColor=#FFFFFF;fillColor=#BAC8D3;fontSize=18;strokeWidth=2;fontFamily=Helvetica;html=1;opacity=60;" parent="1" vertex="1">
          <mxGeometry x="244" y="1100" width="646.67" height="130.5" as="geometry" />
        </mxCell>
        <mxCell id="72" value="" style="strokeColor=#FFFFFF;fillColor=#BAC8D3;fontSize=18;strokeWidth=2;fontFamily=Helvetica;html=1;opacity=60;" parent="1" vertex="1">
          <mxGeometry x="244" y="1230" width="1316" height="210" as="geometry" />
        </mxCell>
        <mxCell id="74" value="" style="strokeColor=#FFFFFF;fillColor=#BAC8D3;fontSize=18;strokeWidth=2;fontFamily=Helvetica;html=1;opacity=60;" parent="1" vertex="1">
          <mxGeometry x="244" y="1440" width="646" height="190.5" as="geometry" />
        </mxCell>
        <mxCell id="75" value="" style="strokeColor=#FFFFFF;fillColor=#BAC8D3;fontSize=18;strokeWidth=2;fontFamily=Helvetica;html=1;opacity=60;" parent="1" vertex="1">
          <mxGeometry x="890.67" y="950" width="669.33" height="150" as="geometry" />
        </mxCell>
        <mxCell id="77" value="" style="strokeColor=#FFFFFF;fillColor=#BAC8D3;fontSize=18;strokeWidth=2;fontFamily=Helvetica;html=1;opacity=60;" parent="1" vertex="1">
          <mxGeometry x="890.67" y="1100" width="669.33" height="130.5" as="geometry" />
        </mxCell>
        <mxCell id="81" value="" style="strokeColor=#FFFFFF;fillColor=#BAC8D3;fontSize=18;strokeWidth=2;fontFamily=Helvetica;html=1;opacity=60;fontStyle=4" parent="1" vertex="1">
          <mxGeometry x="890" y="1440" width="670" height="190.5" as="geometry" />
        </mxCell>
        <mxCell id="90" value="&lt;font color=&quot;#ffffff&quot; style=&quot;font-size: 20px&quot;&gt;根据客户计算客户持有的总市值&lt;/font&gt;" style="rounded=1;fillColor=#23445D;strokeColor=none;strokeWidth=2;fontFamily=Helvetica;html=1;gradientColor=none;" parent="1" vertex="1">
          <mxGeometry x="310" y="970" width="490" height="90" as="geometry" />
        </mxCell>
        <mxCell id="92" value="&lt;font color=&quot;#ffffff&quot; style=&quot;font-size: 20px&quot;&gt;根据策略组合配置的主备关系，将&lt;/font&gt;&lt;span style=&quot;color: rgb(255 , 255 , 255) ; font-size: 20px&quot;&gt;客户持有的&lt;br&gt;进行分组，即：持有主备关系与配置主备相对应&lt;/span&gt;&lt;font color=&quot;#ffffff&quot; style=&quot;font-size: 20px&quot;&gt;&lt;br&gt;&lt;/font&gt;" style="rounded=1;fillColor=#23445D;strokeColor=none;strokeWidth=2;fontFamily=Helvetica;html=1;gradientColor=none;" parent="1" vertex="1">
          <mxGeometry x="310" y="1110" width="490" height="90" as="geometry" />
        </mxCell>
        <mxCell id="uhZb21yLwLG1YKszgIFU-159" value="" style="edgeStyle=orthogonalEdgeStyle;rounded=0;orthogonalLoop=1;jettySize=auto;html=1;strokeWidth=3;" parent="1" source="93" target="110" edge="1">
          <mxGeometry relative="1" as="geometry">
            <Array as="points">
              <mxPoint x="920" y="1450" />
              <mxPoint x="1190" y="1450" />
            </Array>
          </mxGeometry>
        </mxCell>
        <mxCell id="uhZb21yLwLG1YKszgIFU-170" value="赎回" style="edgeLabel;html=1;align=center;verticalAlign=middle;resizable=0;points=[];fontSize=20;" parent="uhZb21yLwLG1YKszgIFU-159" vertex="1" connectable="0">
          <mxGeometry x="0.1598" y="-3" relative="1" as="geometry">
            <mxPoint x="-1" as="offset" />
          </mxGeometry>
        </mxCell>
        <mxCell id="uhZb21yLwLG1YKszgIFU-162" value="" style="edgeStyle=orthogonalEdgeStyle;orthogonalLoop=1;jettySize=auto;html=1;rounded=0;strokeWidth=3;" parent="1" source="93" target="uhZb21yLwLG1YKszgIFU-152" edge="1">
          <mxGeometry relative="1" as="geometry">
            <Array as="points">
              <mxPoint x="920" y="1450" />
              <mxPoint x="650" y="1450" />
            </Array>
          </mxGeometry>
        </mxCell>
        <mxCell id="uhZb21yLwLG1YKszgIFU-169" value="申购" style="edgeLabel;html=1;align=center;verticalAlign=middle;resizable=0;points=[];fontSize=20;" parent="uhZb21yLwLG1YKszgIFU-162" vertex="1" connectable="0">
          <mxGeometry x="0.1684" relative="1" as="geometry">
            <mxPoint x="-1" as="offset" />
          </mxGeometry>
        </mxCell>
        <mxCell id="93" value="&lt;font color=&quot;#ffffff&quot; style=&quot;font-size: 20px&quot;&gt;期望市值与实际市值对比，期望值与实际持有的主备市值做减法，抵扣顺序为先主后备，&lt;br&gt;备选扣减顺序为策略组合配置的顺序。每扣减一次，判断下扣减后的结果&lt;br&gt;&lt;/font&gt;" style="rounded=1;fillColor=#23445D;strokeColor=none;strokeWidth=2;fontFamily=Helvetica;html=1;gradientColor=none;" parent="1" vertex="1">
          <mxGeometry x="440" y="1280" width="960" height="120" as="geometry" />
        </mxCell>
        <mxCell id="98" value="&lt;font color=&quot;#ffffff&quot;&gt;&lt;span style=&quot;font-size: 20px&quot;&gt;根据客户持有的总市值和策略组合的&lt;br&gt;权重&lt;/span&gt;&lt;/font&gt;&lt;span style=&quot;color: rgb(255 , 255 , 255) ; font-size: 20px&quot;&gt;配比，&lt;/span&gt;&lt;font color=&quot;#ffffff&quot;&gt;&lt;span style=&quot;font-size: 20px&quot;&gt;计算各个主产品对应的期望值&lt;/span&gt;&lt;/font&gt;" style="rounded=1;fillColor=#23445D;strokeColor=none;strokeWidth=2;fontFamily=Helvetica;html=1;gradientColor=none;" parent="1" vertex="1">
          <mxGeometry x="949.22" y="970" width="530.78" height="90" as="geometry" />
        </mxCell>
        <mxCell id="110" value="&lt;span style=&quot;color: rgb(255 , 255 , 255) ; font-size: 20px&quot;&gt;小于零说明&lt;/span&gt;&lt;span style=&quot;color: rgb(255 , 255 , 255) ; font-size: 20px&quot;&gt;实际持有的大于期望值，&lt;br&gt;需要赎回，赎回顺序为先备后主，并&lt;br&gt;且赎备顺序为配置顺序倒序。&lt;br&gt;&lt;/span&gt;" style="rounded=1;fillColor=#23445D;strokeColor=none;strokeWidth=2;gradientColor=none;fontFamily=Helvetica;html=1;" parent="1" vertex="1">
          <mxGeometry x="990" y="1485.06" width="410" height="114.94" as="geometry" />
        </mxCell>
        <mxCell id="141" value="&lt;font style=&quot;font-size: 23px&quot;&gt;客户持仓&lt;/font&gt;" style="strokeColor=#BAC8D3;fillColor=#5d7f99;fontSize=19;strokeWidth=2;fontFamily=Helvetica;html=1;labelBackgroundColor=none;fontColor=#FFFFFF;" parent="1" vertex="1">
          <mxGeometry x="244" y="910" width="646.6656362699642" height="40" as="geometry" />
        </mxCell>
        <mxCell id="uhZb21yLwLG1YKszgIFU-144" value="" style="edgeStyle=elbowEdgeStyle;elbow=horizontal;strokeWidth=3;strokeColor=#0C343D;fontFamily=Helvetica;html=1;entryX=0;entryY=0.5;entryDx=0;entryDy=0;exitX=1;exitY=0.5;exitDx=0;exitDy=0;" parent="1" source="90" target="98" edge="1">
          <mxGeometry x="-26.451020408163252" y="564.25" width="131.97278911564624" height="100" as="geometry">
            <mxPoint x="810.004761904762" y="1014.25" as="sourcePoint" />
            <mxPoint x="907.3585034013605" y="1014.25" as="targetPoint" />
            <Array as="points">
              <mxPoint x="847.1" y="1053.75" />
            </Array>
          </mxGeometry>
        </mxCell>
        <mxCell id="uhZb21yLwLG1YKszgIFU-180" value="市值配比" style="edgeLabel;html=1;align=center;verticalAlign=middle;resizable=0;points=[];fontSize=20;" parent="uhZb21yLwLG1YKszgIFU-144" vertex="1" connectable="0">
          <mxGeometry relative="1" as="geometry">
            <mxPoint x="-5" y="1" as="offset" />
          </mxGeometry>
        </mxCell>
        <mxCell id="uhZb21yLwLG1YKszgIFU-146" value="" style="edgeStyle=elbowEdgeStyle;elbow=horizontal;strokeWidth=3;strokeColor=#0C343D;fontFamily=Helvetica;html=1;entryX=1;entryY=0.5;entryDx=0;entryDy=0;" parent="1" source="98" target="92" edge="1">
          <mxGeometry x="-241.96102040816328" y="730" width="131.97278911564624" height="100" as="geometry">
            <mxPoint x="1040.0049659863942" y="1180" as="sourcePoint" />
            <mxPoint x="1124.1614285714284" y="1080" as="targetPoint" />
            <Array as="points">
              <mxPoint x="1190" y="1160" />
            </Array>
          </mxGeometry>
        </mxCell>
        <mxCell id="uhZb21yLwLG1YKszgIFU-176" value="分组" style="edgeLabel;html=1;align=center;verticalAlign=middle;resizable=0;points=[];fontSize=20;" parent="uhZb21yLwLG1YKszgIFU-146" vertex="1" connectable="0">
          <mxGeometry relative="1" as="geometry">
            <mxPoint x="-17" y="-4" as="offset" />
          </mxGeometry>
        </mxCell>
        <mxCell id="uhZb21yLwLG1YKszgIFU-152" value="&lt;span style=&quot;color: rgb(255 , 255 , 255) ; font-size: 20px&quot;&gt;大于零则继续扣减。若持有的都抵扣完后&lt;br&gt;任大于零，则需要申购。申购顺寻为：&lt;br&gt;先主后备，备选申购顺序为配置顺序。&lt;br&gt;&lt;/span&gt;" style="rounded=1;fillColor=#23445D;strokeColor=none;strokeWidth=2;gradientColor=none;fontFamily=Helvetica;html=1;" parent="1" vertex="1">
          <mxGeometry x="440" y="1485.06" width="400" height="114.94" as="geometry" />
        </mxCell>
        <mxCell id="uhZb21yLwLG1YKszgIFU-165" value="&lt;font style=&quot;font-size: 23px&quot;&gt;策略组合配置&lt;/font&gt;" style="strokeColor=#BAC8D3;fillColor=#5d7f99;fontSize=19;strokeWidth=2;fontFamily=Helvetica;html=1;labelBackgroundColor=none;fontColor=#FFFFFF;" parent="1" vertex="1">
          <mxGeometry x="890" y="910" width="670" height="40" as="geometry" />
        </mxCell>
        <mxCell id="uhZb21yLwLG1YKszgIFU-168" value="" style="endArrow=classic;html=1;strokeWidth=3;exitX=0.5;exitY=1;exitDx=0;exitDy=0;entryX=0.5;entryY=0;entryDx=0;entryDy=0;" parent="1" source="92" target="93" edge="1">
          <mxGeometry width="50" height="50" relative="1" as="geometry">
            <mxPoint x="910" y="1430" as="sourcePoint" />
            <mxPoint x="880" y="1710" as="targetPoint" />
            <Array as="points">
              <mxPoint x="555" y="1240" />
              <mxPoint x="920" y="1240" />
            </Array>
          </mxGeometry>
        </mxCell>
        <mxCell id="uhZb21yLwLG1YKszgIFU-177" value="扣减对比" style="edgeLabel;html=1;align=center;verticalAlign=middle;resizable=0;points=[];fontSize=20;" parent="uhZb21yLwLG1YKszgIFU-168" vertex="1" connectable="0">
          <mxGeometry x="-0.132" y="1" relative="1" as="geometry">
            <mxPoint as="offset" />
          </mxGeometry>
        </mxCell>
      </root>
    </mxGraphModel>
  </diagram>
</mxfile>
